<svg xmlns="http://www.w3.org/2000/svg" viewBox="0 0 43.2 46"><path fill="#FFF" d="M28.8 19.7c.8-.7 1.3-1.8 1.3-2.9v-2.5c.9 0 1.5-.7 1.5-1.5v-1.5c0-.9-.7-1.5-1.5-1.5h-17c-.9 0-1.5.7-1.5 1.5v1.5c0 .9.7 1.5 1.5 1.5v2.5c0 1.1.5 2.2 1.3 2.9l4.9 4.2v.8l-4.9 4.2c-.8.7-1.3 1.8-1.3 2.9v2.5c-.9 0-1.5.7-1.5 1.5v1.5c0 .9.7 1.5 1.5 1.5h17c.9 0 1.5-.7 1.5-1.5V36c0-.9-.7-1.5-1.5-1.5V32c0-1.1-.5-2.2-1.3-2.9l-4.9-4.2V24l4.9-4.3zm-15.7-8.4h17v1.5h-17v-1.5zm1.6 3.1h13.9v2.5c0 .5-.2 1-.5 1.4h-13c-.3-.4-.5-.9-.5-1.4v-2.5zm15.4 23.1h-17V36h17v1.5zM22.9 26l4.9 4.2c.5.4.8 1.1.8 1.7v2.5H14.7V32c0-.7.3-1.3.8-1.7l4.9-4.2c.3-.3.5-.7.5-1.2V24c0-.4-.2-.9-.5-1.2l-3.5-3h9.6l-3.5 3c-.3.3-.5.7-.5 1.2v.8c-.1.5.1.9.4 1.2z"/><path fill="#FFF" d="M20.8 26.7h1.5v1.5h-1.5v-1.5zm0 3.1h1.5v1.5h-1.5v-1.5z"/><path fill="#FFF" d="M41.7 24.4c0 10.9-8.6 19.7-19.5 20.1s-20-8.1-20.6-18.9C1 14.7 9.1 5.3 19.9 4.4L18 6.6l1.2 1 3-3.5c.3-.3.2-.8-.1-1.1l-3.5-3-1 1.2 2 1.7C8 4-.7 14.1 0 25.7.8 37.4 10.6 46.4 22.3 46s20.9-9.9 20.9-21.6h-1.5zm-1.3-7l1.4-.5-.6-1.5-1.4.6c.2.5.4 1 .6 1.4zM31.5 5.2c-.5-.2-1-.5-1.4-.7l-.6 1.4c.4.2.9.4 1.3.6l.7-1.3z"/><path fill="#FFF" d="M41.6 23.2l1.5-.1c0-.5-.1-1.1-.2-1.6l-1.5.2c.1.5.2 1 .2 1.5zm-.4-2.9l1.5-.3c-.1-.5-.2-1-.4-1.6l-1.5.4c.2.5.3 1 .4 1.5zm-3.6-8.1l1.2-.9c-.3-.4-.7-.8-1-1.2l-1.2 1c.3.4.7.7 1 1.1zm1.6 2.5l1.4-.7c-.3-.5-.5-.9-.8-1.4l-1.3.8c.2.5.4.9.7 1.3zM28.5 3.9c-.5-.2-1-.3-1.5-.5L26.6 5c.5.1.9.3 1.4.4l.5-1.5zm-3.1-.8c-.5-.1-1-.1-1.5-.2l-.2 1.5c.5.1 1 .1 1.5.2l.2-1.5zm8.8 3.8c-.4-.3-.9-.6-1.3-.9l-.8 1.3c.4.3.8.5 1.2.8l.9-1.2zm2.5 2c-.4-.4-.8-.7-1.2-1.1l-1 1.2c.4.3.7.7 1.1 1l1.1-1.1z"/></svg>