<svg xmlns="http://www.w3.org/2000/svg" viewBox="0 0 44 44"><g fill="#FFF"><path d="M24.9 26.4h-1.5c0 .8-.7 1.5-1.5 1.5s-1.5-.7-1.5-1.5h-1.5c0 1.6 1.3 2.9 2.9 2.9 1.8 0 3.1-1.3 3.1-2.9z"/><path d="M40.8 30.5l-2.6-1V28c1.4-.8 2.2-2.2 2.2-3.8v-.7c.4 0 .7-.3.7-.7v-1.5c0-2.8-2.3-5.1-5.1-5.1s-5.1 2.3-5.1 5.1v1.5c0 .4.3.7.7.7v.7c0 1.6.8 3 2.2 3.8v1.6l-2.6 1c-.9.4-1.8 1-2.3 1.8-.2.3-.4.6-.5 1l-3.3-.9v-.9c2.2-1.1 3.7-3.4 3.7-5.9V25c.4 0 .7-.3.7-.7V22c0-4.1-3.3-7.3-7.3-7.3S14.9 18 14.9 22v2.2c0 .4.3.7.7.7v.7c0 2.5 1.4 4.8 3.7 5.9v.9l-3.3.9c-.5-1.3-1.6-2.3-2.9-2.8l-2.6-1V28c1.4-.8 2.2-2.2 2.2-3.8v-.7c.4 0 .7-.3.7-.7v-1.5c0-2.8-2.3-5.1-5.1-5.1s-5.1 2.3-5.1 5.1v1.5c0 .4.3.7.7.7v.7c0 1.6.8 3 2.2 3.8v1.6l-2.6 1c-2.2.7-3.5 2.5-3.5 4.6v4.4c0 .4.3.7.7.7H11v2.9c0 .4.3.7.7.7h20.5c.4 0 .7-.3.7-.7v-2.9h10.3c.4 0 .7-.3.7-.7v-4.4c.1-2.1-1.2-3.9-3.1-4.7zm-8.5-9.2c0-2 1.6-3.7 3.7-3.7 2 0 3.7 1.6 3.7 3.7v.7h-.4L38 20.7c-.2-.2-.6-.3-.9-.1L35 22h-2.7v-.7zm.7 2.2h2.2c.1 0 .3 0 .4-.1l1.7-1.1 1 1c.1.1.3.2.5.2v.7c0 1.6-1.3 2.9-2.9 2.9S33 25.8 33 24.2v-.7zm2.9 5.1c.2 0 .5 0 .7-.1v1.2l-.7.7-.7-.7v-1.2c.2.1.5.1.7.1zm-18.3 5.8l1-.3 2.6 2.2v1.9h1.5v-1.9l2.6-2.2 1 .3v1.3L22 40l-4.4-4.4v-1.2zM16.1 22c0-3.2 2.6-5.9 5.9-5.9s5.9 2.6 5.9 5.9v1.4c-1.2-.2-2.2-.9-2.8-2l-.3-.5c-.2-.4-.6-.5-1-.3-.1 0-.1.1-.2.1L22.5 22c-1 1-2.3 1.5-3.6 1.5h-2.7V22zm.8 3.7V25h2c1.8 0 3.4-.7 4.7-1.9l.5-.5c.7 1.1 1.8 2 3.1 2.3v.9c0 2.8-2.3 5.1-5.1 5.1s-5.2-2.4-5.2-5.2zm5.1 6.6c.5 0 1-.1 1.5-.2v.9c0 .2.1.4.3.5L22 35l-1.7-1.4c.2-.1.3-.3.3-.5v-.9c.4 0 .9.1 1.4.1zm-17.6-11c0-2 1.6-3.7 3.7-3.7s3.7 1.6 3.7 3.7v.7h-.4l-1.3-1.3c-.2-.2-.6-.3-.9-.1l-2 1.3H4.4v-.6zm.7 2.2h2.2c.1 0 .3 0 .4-.1l1.7-1.1 1 1c.1.1.3.2.5.2v.7c0 1.6-1.3 2.9-2.9 2.9s-2.9-1.3-2.9-2.9v-.7zm3 5.1c.2 0 .5 0 .7-.1v1.2l-.7.7-.7-.7v-1.2c.2.1.4.1.7.1zM1.5 38.9v-3.7c0-1.5.9-2.8 2.3-3.3l2.7-1L7.6 32c.3.3.8.3 1 0l1.1-1.1 2.7 1c.9.3 1.6 1 2 1.8-2 .7-3.3 2.7-3.4 4.8v.3H1.5zm30 3.6h-19v-4c0-1.7 1.1-3.1 2.7-3.5l1-.3v1.2c0 .2.1.4.2.5l5.1 5.1c.3.3.8.3 1 0l5.1-5.1c.1-.1.2-.3.2-.5v-1.2l1 .3c1.6.4 2.7 1.9 2.7 3.5v4zm11-3.6H33v-.3c0-2.1-1.3-4.1-3.4-4.8l.3-.6c.4-.6 1-1 1.6-1.3l2.7-1 1.1 1.1c.3.3.8.3 1 0l1.1-1.1 2.7 1c1.4.5 2.3 1.8 2.3 3.3v3.7zM5.1 11.7h3.7v2.2c0 .4.3.7.7.7.2 0 .4-.1.5-.2l2.7-2.7h4.1c.8 0 1.5-.7 1.5-1.5H20l1.3 2.5c.2.4.6.5 1 .3.1-.1.3-.2.3-.3l1.3-2.5h1.7c0 .8.7 1.5 1.5 1.5h4.1l2.7 2.7c.3.3.8.3 1 0 .1-.1.2-.3.2-.5v-2.2h3.7c.8 0 1.5-.7 1.5-1.5V2.9c0-.8-.7-1.5-1.5-1.5h-9.5c0-.8-.7-1.5-1.5-1.5H16.1c-.8 0-1.5.7-1.5 1.5H5.1c-.8 0-1.5.7-1.5 1.5v7.3c.1.9.7 1.5 1.5 1.5zm24.2-2.9V2.9h9.5v7.3h-4.4c-.4 0-.7.3-.7.7v1.2L32 10.4c-.1-.1-.3-.2-.5-.2h-3.7c.9.1 1.5-.6 1.5-1.4zM16.1 1.5h11.7v7.3h-4.4c-.3 0-.5.2-.7.4l-.7 1.6-.8-1.6c-.1-.2-.4-.4-.7-.4h-4.4V1.5zm-11 1.4h9.5v5.9c0 .8.7 1.5 1.5 1.5h-3.7c-.2 0-.4.1-.5.2l-1.7 1.7V11c0-.4-.3-.7-.7-.7H5.1V2.9z"/><path d="M7.3 4.4h5.9v1.5H7.3zm0 2.9h5.9v1.5H7.3zm23.5-2.9h5.9v1.5h-5.9zm0 2.9h5.9v1.5h-5.9zM18.3 2.9h7.3v1.5h-7.3zm0 3h7.3v1.5h-7.3z"/></g></svg>