<svg xmlns="http://www.w3.org/2000/svg" viewBox="0 0 41.1 41"><g fill="#FFF"><path d="M38.4 41H2.6c-.3 0-.6-.3-.6-.7V14.5c0-.4.3-.7.7-.7h35.8c.4 0 .7.3.7.7v25.8c-.1.4-.4.7-.8.7zM3.3 39.7h34.4V15.2H3.3v24.5z"/><path d="M40.4 15.2H.7c-.4 0-.7-.3-.7-.7V7.9c0-.4.3-.7.7-.7h39.7c.4 0 .7.3.7.7v6.6c0 .4-.3.7-.7.7zM1.3 13.8h38.4V8.5H1.3v5.3z"/><path d="M25.2 15.2h-9.3c-.4 0-.7-.3-.7-.7V7.9c0-.4.3-.7.7-.7h9.3c.4 0 .7.3.7.7v6.6c-.1.4-.4.7-.7.7zm-8.6-1.4h7.9V8.5h-7.9v5.3z"/><path d="M23.2 8.5h-5.3c-.4 0-.7-.3-.7-.7V5.1c0-1 .8-1.9 1.9-1.9h2.8c1 0 1.9.8 1.9 1.9v2.7c0 .4-.3.7-.6.7zm-4.7-1.3h4V5.1c0-.3-.3-.6-.6-.6h-2.8c-.3 0-.6.3-.6.6v2.1z"/><path d="M36.4 8.5H23.2c-.4 0-.7-.3-.7-.7V6.5c0-.2.1-.4.3-.6L31.9.5c1.6-1 3.7-.5 4.7 1.2.3.5.5 1.1.5 1.8V8c0 .2-.3.5-.7.5zM23.8 7.2h11.9V3.4c0-1.2-.9-2.1-2.1-2.1-.4 0-.8.1-1.1.3l-8.7 5.2v.4zm-5.9 1.3H4.6c-.3 0-.6-.3-.6-.6V3.4C4 1.5 5.5 0 7.4 0 8 0 8.6.2 9.2.5l9.1 5.4c.2.1.3.3.3.6v1.4c-.1.3-.3.6-.7.6zM5.3 7.2h11.9v-.3L8.5 1.6c-1-.6-2.3-.3-2.9.7-.2.4-.3.7-.3 1.1v3.8zm4 23.2c-.4 0-.7-.3-.7-.7v-6.6c0-.4.3-.7.7-.7h4c.4 0 .7.3.7.7 0 .4-.3.7-.7.7H9.9v6c0 .3-.3.6-.6.6z"/><path d="M13.2 27.1h-4c-.4 0-.7-.3-.7-.7 0-.4.3-.7.7-.7h4c.4 0 .7.3.7.7 0 .4-.3.7-.7.7zm12.6 0h-3.3c-.4 0-.7-.3-.7-.7 0-.4.3-.7.7-.7h3.3c.4 0 .7.3.7.7 0 .4-.3.7-.7.7z"/><path d="M25.8 30.4h-3.3c-.4 0-.7-.3-.7-.7v-6.6c0-.4.3-.7.7-.7h3.3c.4 0 .7.3.7.7 0 .4-.3.7-.7.7h-2.6v5.3h2.6c.4 0 .7.3.7.7s-.3.6-.7.6zm6-3.3h-3.3c-.4 0-.7-.3-.7-.7 0-.4.3-.7.7-.7h3.3c.4 0 .7.3.7.7 0 .4-.3.7-.7.7z"/><path d="M31.8 30.4h-3.3c-.4 0-.7-.3-.7-.7v-6.6c0-.4.3-.7.7-.7h3.3c.4 0 .7.3.7.7 0 .4-.3.7-.7.7h-2.6v5.3h2.6c.4 0 .7.3.7.7s-.3.6-.7.6zm-15.9 0c-.4 0-.7-.3-.7-.7v-6.6c0-.4.3-.7.7-.7h2.7c1.1 0 1.9.9 1.9 1.9v.8c0 1.1-.9 1.9-1.9 1.9h-2.1v2.6c.1.5-.2.8-.6.8zm.7-4.6h2.1c.3 0 .6-.3.6-.6v-.8c0-.3-.3-.6-.6-.6h-2.1v2z"/><path d="M19.9 30.4c-.2 0-.3-.1-.5-.2l-3.3-3.3c-.3-.3-.2-.7 0-.9.3-.2.7-.2.9 0l3.3 3.3c.3.3.3.7 0 .9-.1.1-.3.2-.4.2z"/></g></svg>