<svg width="31" height="29" viewBox="0 0 31 29" fill="none" xmlns="http://www.w3.org/2000/svg">
<path fill-rule="evenodd" clip-rule="evenodd" d="M15.049 0C17.7649 0 20.277 0.602467 22.5855 1.8074C24.8939 3.01234 26.7271 4.63685 28.085 6.68094C29.4429 8.72502 30.1219 10.952 30.1219 13.3619C30.1219 16.2881 29.1487 18.9132 27.2024 21.237C25.3918 23.4747 22.9928 25.067 20.0054 26.0137C16.9727 26.9604 13.8722 27.025 10.7037 26.2073L5.61153 28.9184V23.819C2.94097 21.8825 1.22095 19.5156 0.451462 16.7185C-0.272759 14.1365 -0.125651 11.5437 0.892784 8.94019C1.91122 6.33667 3.64256 4.21727 6.0868 2.582C8.66684 0.860668 11.6543 0 15.049 0ZM16.6106 17.9449L24.8939 9.68252L17.3575 13.6201L13.4874 9.74707L5.27206 18.074L12.7406 14.0719L16.6106 17.9449Z" fill="white"/>
</svg>
