<svg width="32" height="27" viewBox="0 0 32 27" fill="none" xmlns="http://www.w3.org/2000/svg">
<path fill-rule="evenodd" clip-rule="evenodd" d="M26.647 24.8107L31.3981 2.41258C31.5921 1.4645 31.4789 0.785776 31.0588 0.37638C30.6386 -0.0330166 30.0838 -0.108431 29.3943 0.150135L1.46928 10.9129C0.844409 11.1499 0.418859 11.4192 0.192614 11.7209C-0.0336313 12.0226 -0.0605648 12.3081 0.111812 12.5774C0.28419 12.8467 0.628939 13.0568 1.14607 13.2077L8.28892 15.4378L24.8694 4.99822C25.3219 4.69656 25.6666 4.63192 25.9036 4.8043C26.0545 4.91204 26.0114 5.07364 25.7744 5.28911L12.3613 17.4093L11.8442 24.7784C12.3398 24.7784 12.8246 24.5414 13.2986 24.0674L16.7892 20.706L24.029 26.0389C25.4081 26.8146 26.2807 26.4052 26.647 24.8107Z" fill="white"/>
</svg>
